<svg xmlns="http://www.w3.org/2000/svg" viewBox="0 0 33.71 36.41"><defs><style>.cls-1{fill:#fff;}.cls-2{fill:#e4e4e4;}.cls-3{fill:#129487;}</style></defs><g id="Layer_2" data-name="Layer 2"><g id="Layer_1-2" data-name="Layer 1"><polygon class="cls-1" points="31.03 20.71 31.03 18.11 33.62 18.11 33.62 2.69 31.03 2.69 31.03 0.09 0.09 0.09 0.09 12.91 2.69 12.91 2.69 18.3 0.09 18.3 0.09 33.72 2.69 33.72 2.69 36.32 33.62 36.32 33.62 23.5 28.43 23.5 28.43 20.71 31.03 20.71"/><polygon class="cls-2" points="25.93 2.6 25.93 5.2 25.93 7.8 25.93 10.4 25.93 13 25.93 15.6 28.53 15.6 28.53 13 28.53 10.4 28.53 7.8 28.53 5.2 28.53 2.6 25.93 2.6"/><rect class="cls-2" x="23.34" y="15.6" width="2.59" height="2.6"/><polygon class="cls-2" points="18.15 18.2 18.15 20.8 20.75 20.8 23.34 20.8 23.34 18.2 20.75 18.2 18.15 18.2"/><rect class="cls-2" x="15.56" y="20.81" width="2.59" height="2.6"/><polygon class="cls-2" points="25.93 26.01 25.93 28.61 23.34 28.61 20.75 28.61 18.15 28.61 15.56 28.61 12.97 28.61 10.37 28.61 7.78 28.61 5.19 28.61 2.59 28.61 2.59 31.21 5.19 31.21 7.78 31.21 10.37 31.21 12.97 31.21 15.56 31.21 18.15 31.21 20.75 31.21 23.34 31.21 25.93 31.21 28.53 31.21 28.53 28.61 28.53 26.01 28.53 23.41 25.93 23.41 25.93 26.01"/><polygon class="cls-3" points="28.53 5.2 28.53 7.8 28.53 10.4 28.53 13 28.53 15.6 31.12 15.6 31.12 13 31.12 10.4 31.12 7.8 31.12 5.2 28.53 5.2"/><rect class="cls-3" x="25.93" y="15.6" width="2.59" height="2.6"/><rect class="cls-3" x="23.34" y="18.2" width="2.59" height="2.6"/><rect class="cls-3" x="18.15" y="20.81" width="2.59" height="2.6"/><polygon class="cls-3" points="10.37 13 12.97 13 15.56 13 18.15 13 18.15 10.4 15.56 10.4 12.97 10.4 10.37 10.4 7.78 10.4 5.19 10.4 5.19 13 7.78 13 10.37 13"/><polygon class="cls-3" points="28.53 28.61 28.53 31.21 25.93 31.21 23.34 31.21 20.75 31.21 18.15 31.21 15.56 31.21 12.97 31.21 10.37 31.21 7.78 31.21 5.19 31.21 5.19 33.81 7.78 33.81 10.37 33.81 12.97 33.81 15.56 33.81 18.15 33.81 20.75 33.81 23.34 33.81 25.93 33.81 28.53 33.81 31.12 33.81 31.12 31.21 31.12 28.61 31.12 26.01 28.53 26.01 28.53 28.61"/><polygon points="31.12 2.6 31.12 0 28.53 0 25.93 0 23.34 0 20.75 0 18.15 0 15.56 0 12.97 0 10.37 0 7.78 0 5.19 0 2.59 0 0 0 0 2.6 0 5.2 0 7.8 0 10.4 0 13 2.59 13 2.59 15.6 2.59 18.2 5.19 18.2 5.19 15.6 7.78 15.6 10.37 15.6 10.37 13 7.78 13 5.19 13 5.19 10.4 2.59 10.4 2.59 7.8 2.59 5.2 2.59 2.6 5.19 2.6 7.78 2.6 10.37 2.6 12.97 2.6 15.56 2.6 18.15 2.6 20.75 2.6 23.34 2.6 25.93 2.6 28.53 2.6 28.53 5.2 31.12 5.2 31.12 7.8 31.12 10.4 31.12 13 31.12 15.6 28.53 15.6 28.53 18.2 25.93 18.2 25.93 20.8 23.34 20.8 20.75 20.8 20.75 23.41 23.34 23.41 25.93 23.41 28.53 23.41 28.53 20.8 31.12 20.8 31.12 18.2 33.71 18.2 33.71 15.6 33.71 13 33.71 10.4 33.71 7.8 33.71 5.2 33.71 2.6 31.12 2.6"/><polygon points="31.12 26.01 31.12 28.61 31.12 31.21 31.12 33.81 28.53 33.81 25.93 33.81 23.34 33.81 20.75 33.81 18.15 33.81 15.56 33.81 12.97 33.81 10.37 33.81 7.78 33.81 5.19 33.81 5.19 31.21 2.59 31.21 2.59 28.61 2.59 26.01 2.59 23.41 2.59 20.8 2.59 18.2 0 18.2 0 20.8 0 23.41 0 26.01 0 28.61 0 31.21 0 33.81 2.59 33.81 2.59 36.41 5.19 36.41 7.78 36.41 10.37 36.41 12.97 36.41 15.56 36.41 18.15 36.41 20.75 36.41 23.34 36.41 25.93 36.41 28.53 36.41 31.12 36.41 33.71 36.41 33.71 33.81 33.71 31.21 33.71 28.61 33.71 26.01 33.71 23.41 31.12 23.41 28.53 23.41 28.53 26.01 31.12 26.01"/></g></g></svg>