<?xml version="1.0" encoding="utf-8"?>
<!-- Generator: Adobe Illustrator 25.2.3, SVG Export Plug-In . SVG Version: 6.00 Build 0)  -->
<svg version="1.1" id="Layer_1" xmlns="http://www.w3.org/2000/svg" xmlns:xlink="http://www.w3.org/1999/xlink" x="0px" y="0px"
	 viewBox="0 0 180 82" style="enable-background:new 0 0 180 82;" xml:space="preserve">
<style type="text/css">
	.st0{fill:#2F4951;}
	.st1{fill:#2B2B2B;}
	.st2{fill:#FFFFFF;}
	.st3{fill:url(#SVGID_1_);}
	.st4{fill:url(#SVGID_2_);}
	.st5{fill:url(#SVGID_3_);}
	.st6{fill:url(#SVGID_4_);}
	.st7{fill:url(#SVGID_5_);}
	.st8{fill:url(#SVGID_6_);}
	.st9{fill:url(#SVGID_7_);}
	.st10{fill:url(#SVGID_8_);}
	.st11{fill:url(#SVGID_9_);}
</style>
<g>
	<polygon class="st0" points="175.91,60.34 175.91,58.25 178.16,58.25 178.16,55.97 180,55.97 180,48.24 178.16,48.24 178.16,44.19 
		175.91,44.19 175.91,41.92 173.63,41.92 173.6,41.92 173.6,40.12 169.49,40.12 169.49,37.97 165.33,37.97 165.33,36.16 
		146.89,36.16 146.89,33.99 145.01,33.99 145.01,33.99 145.01,32.17 120.58,32.17 120.58,33.99 120.58,33.99 120.58,33.99 
		118.39,33.99 118.39,36.16 116.52,36.16 116.52,37.91 114.16,37.91 114.16,36.07 93.78,36.07 93.78,33.85 93.78,33.84 95.64,33.84 
		95.64,32.04 97.97,32.04 97.97,28.03 99.82,28.03 99.82,26.15 101.66,26.15 101.66,12.18 99.82,12.18 99.82,9.9 97.97,9.9 
		97.97,5.83 95.67,5.83 95.67,4.04 93.88,4.04 93.88,1.81 91.55,1.81 91.55,0 73.12,0 73.12,1.81 71.26,1.81 71.26,4.04 69.43,4.04 
		69.43,5.88 67.11,5.88 67.11,8.11 65.34,8.11 65.34,9.83 63.03,9.83 63.03,8.11 61.21,8.11 61.19,8.11 61.19,5.85 57.03,5.85 
		57.03,4.04 44.59,4.04 44.59,5.85 40.36,5.85 40.36,8.1 38.6,8.1 38.6,4.04 36.33,4.04 36.33,1.81 34.43,1.81 34.43,0.01 
		7.77,0.01 7.77,1.81 5.93,1.81 5.93,4.04 4.04,4.04 4.04,8.39 1.85,8.39 1.85,10.19 0.01,10.19 0.01,20.08 1.85,20.08 1.85,20.12 
		1.85,22.16 7.77,22.16 7.77,23.93 5.93,23.93 5.93,26.2 4.12,26.2 4.12,30.08 1.85,30.08 1.85,32.35 0,32.35 0,42.27 1.85,42.27 
		1.85,46.27 0,46.27 0,78.34 1.85,78.34 1.85,78.34 1.85,78.34 1.85,80.19 11.96,80.19 11.96,78.34 13.83,78.34 13.83,76.09 
		16.13,76.09 16.13,78.34 18.43,78.34 18.43,80.19 30.41,80.19 32.68,80.19 32.68,82 57.11,82 57.11,80.19 58.95,80.19 58.95,78.02 
		63.03,78.02 63.03,76.17 85.72,76.17 85.72,78.02 98.08,78.02 98.08,76.09 99.97,76.09 99.97,73.84 104,73.84 104,72.06 104,72.06 
		106.32,72.06 106.32,69.94 108.19,69.94 108.19,67.97 110.56,67.97 110.56,66.17 112.46,66.17 112.46,74.26 114.66,74.26 
		114.66,76.09 139.09,76.09 139.09,78.35 140.97,78.35 140.97,80.16 151.53,80.16 151.53,78.35 153.39,78.35 153.39,76.07 
		157.45,76.07 157.45,78.35 159.44,78.35 159.44,80.16 169.99,80.16 169.99,78.35 171.84,78.35 171.84,76.09 175.91,76.09 
		175.91,74.27 178.16,74.27 178.16,72.2 180,72.2 180,68.1 178.16,68.1 178.16,64.05 175.91,64.05 175.91,62.27 173.63,62.27 
		173.6,62.27 173.6,60.34 	"/>
	<g>
		<g>
			<polygon class="st1" points="18.43,50.36 16.12,50.36 16.12,52.17 14.27,52.17 14.27,56.22 11.97,56.22 11.97,46.27 1.85,46.27 
				1.85,78.34 11.96,78.34 11.96,68.41 14.25,68.41 14.25,72.04 16.13,72.04 16.13,76.09 18.43,76.09 18.43,78.34 30.41,78.34 
				30.41,72.04 28.55,72.04 28.55,70.23 26.72,70.23 26.72,68.41 24.41,68.41 24.41,64.37 22.56,64.37 22.56,60.29 24.4,60.29 
				24.4,56.22 26.71,56.22 26.71,54.4 28.55,54.4 28.55,52.13 30.41,52.13 30.41,46.27 18.43,46.27 			"/>
			<polyline class="st1" points="32.68,69.94 32.68,80.19 57.11,80.19 57.11,70.27 42.8,70.27 			"/>
			<polygon class="st1" points="59.42,74.26 83.84,74.26 83.84,66.22 69.54,66.22 69.54,62.1 83.84,62.1 83.84,56.28 81.98,56.28 
				81.98,54.45 69.58,54.45 69.58,52.12 83.84,52.12 83.84,44.03 59.42,44.03 			"/>
			<polygon class="st1" points="114.66,74.26 139.09,74.26 139.09,66.22 124.78,66.22 124.78,62.1 139.09,62.1 139.09,56.28 
				137.22,56.28 137.22,54.45 124.82,54.45 124.82,52.12 139.09,52.12 139.09,42.31 114.66,42.31 			"/>
			<path class="st1" d="M110.6,48.08h-2.36v-1.75H85.72v29.77h12.37v-9.92h12.48V64.3h1.9V50.35h-1.86V48.08z M102.27,58.1h-4.19
				v-3.74h4.19V58.1z"/>
			<path class="st1" d="M167.68,64.4v-2.29h2.31V54.4h-2.28v-4.05h-4.13v-2.26h-4.16v-1.82h-18.44v32.08h10.55v-10h4.26v5.91h1.66
				v1.8h1.99v2.29h10.55v-4.09h-2.28V70.2h-1.85v-1.77h-2.28V64.4H167.68z M157.55,60.26h-5.97V54.4h5.97V60.26z"/>
		</g>
		<g>
			<polygon class="st1" points="1.85,20.12 11.92,20.12 11.92,22.39 10.09,22.39 10.09,24.18 8.27,24.18 8.27,28.32 5.98,28.32 
				5.98,30.08 4.12,30.08 4.12,32.35 1.85,32.35 1.85,42.27 17.18,42.27 17.18,34.18 16.13,34.18 16.13,30.11 20.21,30.11 
				20.21,26.01 22.46,26.01 22.46,24.15 24.28,24.15 24.28,22.43 26.6,22.43 26.6,20.04 28.51,20.04 28.51,10.19 1.85,10.19 			"/>
		</g>
	</g>
	<path class="st2" d="M89.77,37.88v-1.81h1.78v-2.22H73.16v2.22h-7.82v1.81h-2.31v2.25h-1.9v-2.25h0.01h1.89v-1.81h2.31v-2.22h1.77
		v-1.83h2.39v1.82h3.66h18.39v-1.8h0v1.81h2.23v-1.81v-4.01h0v4.01h1.86v-4.01h2.32v-1.88h1.85V12.18h-1.85V9.9h-2.28h-0.01V5.83
		h-1.78h-0.01V4.04h-2.34V1.81H73.12v2.23h-1.86v1.83v0h-1.83v2.24h-2.32v4.07h-4.08V9.83h-1.81V8.11h-4.19V5.85H44.59V8.1h-4.22
		v1.73H38.6v2.31h-2.27V4.04h-1.9V1.81H7.77v2.23H5.93v9.92h1.84v2.28h6.42v1.79H11.9v4.14h-1.86v1.75H7.77v2.28H5.93v9.92h1.84
		v2.19v1.81H5.93v32.07h1.84v1.85h10.11v-1.85h2.3v-2.25h1.88v2.25h2.3v1.85h11.98v0.02h2.27v2.11h24.43v-2.13h2.31v-4.1h24.43h1.87
		v2.12H104v-2.12h2.31v-7.8h10.17v-2.12h1.9v8.08h2.2v0.01v0v1.81h24.43v2.29h1.89v2.06h10.55V72.2h0h2.13V68.1h2.13v0.02v1.8h1.75
		v0v2.29h1.9v2.06h10.55V72.2h2.24V68.1h-2.24v-4.05h-2.28v0v-1.78h-1.85v-1.93h1.83v-2.09h2.31v-2.29h2.24v-7.73h-2.24v-4.05h-2.28
		v-2.26h-4.13v-1.8h-4.16h0v-2.15h-18.44v-1.81h-1.89v-2.17h-24.43v2.17h-2.2v5.75h-1.86v-1.75h-2.36v-2.24L89.77,37.88z
		 M118.39,44.2L118.39,44.2l-1.86,0v0H118.39z M52.84,18.07v9.89h-4.11v-9.89H52.84z M83.74,14.04v9.89h-4.15v-9.89H83.74z
		 M26.13,26.23v-2.26h2.25v-4.1h1.82V18h2.32v-1.72h1.9v9.95H26.13z M16.01,16.24L16.01,16.24l0.01,1.79h-0.01V16.24z M17.88,38.32
		h6.46v1.81h0v4.09h0v-4.09h-2.31v4.09h-1.85v-4.09h-2.3h-0.01V38.32z M34.47,64.08v-1.83h-1.83v-4.04h-2.31v-4.08h2.3v-4.07h1.85
		v-1.82h1.85v15.83H34.47z M36.33,40.12v-2.21h-1.9v-1.78h1.69h0.22h2.27v1.75h1.84v2.25H38.6H36.33z"/>
	<g>
		<g>
			<linearGradient id="SVGID_1_" gradientUnits="userSpaceOnUse" x1="22.0503" y1="37.4437" x2="22.0503" y2="74.4753">
				<stop  offset="0" style="stop-color:#00A59A"/>
				<stop  offset="1" style="stop-color:#008E84"/>
			</linearGradient>
			<polygon class="st3" points="24.35,44.21 22.04,44.21 22.04,46.02 20.19,46.02 20.19,50.07 17.89,50.07 17.89,40.12 7.77,40.12 
				7.77,72.19 17.88,72.19 17.88,62.26 20.17,62.26 20.17,65.89 22.05,65.89 22.05,69.94 24.35,69.94 24.35,72.19 36.33,72.19 
				36.33,65.89 34.47,65.89 34.47,64.08 32.64,64.08 32.64,62.26 30.33,62.26 30.33,58.22 28.48,58.22 28.48,54.14 30.32,54.14 
				30.32,50.07 32.63,50.07 32.63,48.26 34.47,48.26 34.47,45.98 36.33,45.98 36.33,40.12 24.35,40.12 			"/>
			<linearGradient id="SVGID_2_" gradientUnits="userSpaceOnUse" x1="50.8138" y1="37.4437" x2="50.8138" y2="74.4753">
				<stop  offset="0" style="stop-color:#00A59A"/>
				<stop  offset="1" style="stop-color:#008E84"/>
			</linearGradient>
			<polygon class="st4" points="38.6,74.04 63.03,74.04 63.03,64.12 48.72,64.12 48.72,62.22 63.03,62.22 63.03,55.99 61.16,55.99 
				61.16,54.16 48.76,54.16 48.76,50.02 63.03,50.02 63.03,41.93 38.6,41.93 			"/>
			<linearGradient id="SVGID_3_" gradientUnits="userSpaceOnUse" x1="77.5523" y1="37.4437" x2="77.5523" y2="74.4753">
				<stop  offset="0" style="stop-color:#00A59A"/>
				<stop  offset="1" style="stop-color:#008E84"/>
			</linearGradient>
			<polygon class="st5" points="65.34,68.11 89.77,68.11 89.77,60.07 75.46,60.07 75.46,55.95 89.77,55.95 89.77,50.13 87.9,50.13 
				87.9,48.31 75.5,48.31 75.5,45.97 89.77,45.97 89.77,37.88 65.34,37.88 			"/>
			<linearGradient id="SVGID_4_" gradientUnits="userSpaceOnUse" x1="132.7964" y1="37.4437" x2="132.7964" y2="74.4753">
				<stop  offset="0" style="stop-color:#00A59A"/>
				<stop  offset="1" style="stop-color:#008E84"/>
			</linearGradient>
			<polygon class="st6" points="120.58,68.11 145.01,68.11 145.01,60.07 130.7,60.07 130.7,55.95 145.01,55.95 145.01,50.13 
				143.15,50.13 143.15,48.31 130.74,48.31 130.74,45.97 145.01,45.97 145.01,36.16 120.58,36.16 			"/>
			<linearGradient id="SVGID_5_" gradientUnits="userSpaceOnUse" x1="105.0116" y1="37.4437" x2="105.0116" y2="74.4753">
				<stop  offset="0" style="stop-color:#00A59A"/>
				<stop  offset="1" style="stop-color:#008E84"/>
			</linearGradient>
			<path class="st7" d="M116.52,41.93h-2.36v-1.75H91.64v29.77H104v-9.92h12.48v-1.87h1.9V44.2h-1.86V41.93z M108.19,51.95H104
				v-3.74h4.19V51.95z"/>
			<linearGradient id="SVGID_6_" gradientUnits="userSpaceOnUse" x1="161.4035" y1="37.4437" x2="161.4035" y2="74.4753">
				<stop  offset="0" style="stop-color:#00A59A"/>
				<stop  offset="1" style="stop-color:#008E84"/>
			</linearGradient>
			<path class="st8" d="M173.6,58.25v-2.29h2.31v-7.71h-2.28V44.2h-4.13v-2.26h-4.16v-1.82h-18.44V72.2h10.55v-10h4.26v5.91h1.75
				v1.8h1.9v2.29h10.55v-4.09h-2.28v-4.07h-1.85v-1.77h-2.28v-4.03H173.6z M163.47,54.11h-5.97v-5.86h5.97V54.11z"/>
		</g>
		<g>
			<linearGradient id="SVGID_7_" gradientUnits="userSpaceOnUse" x1="21.0985" y1="37.8416" x2="21.0985" y2="22.5015">
				<stop  offset="0" style="stop-color:#DA9807"/>
				<stop  offset="1" style="stop-color:#F9BB32"/>
			</linearGradient>
			<polygon class="st9" points="7.77,13.97 17.84,13.97 17.84,16.24 16.01,16.24 16.01,18.03 14.19,18.03 14.19,22.17 11.9,22.17 
				11.9,23.93 10.04,23.93 10.04,26.2 7.77,26.2 7.77,36.13 34.43,36.13 34.43,28.03 22.05,28.03 22.05,23.96 26.13,23.96 
				26.13,19.86 28.38,19.86 28.38,18 30.2,18 30.2,16.28 32.52,16.28 32.52,13.89 34.43,13.89 34.43,4.04 7.77,4.04 			"/>
			<linearGradient id="SVGID_8_" gradientUnits="userSpaceOnUse" x1="50.8349" y1="37.8416" x2="50.8349" y2="22.5015">
				<stop  offset="0" style="stop-color:#DA9807"/>
				<stop  offset="1" style="stop-color:#F9BB32"/>
			</linearGradient>
			<path class="st10" d="M63.03,12.18h-1.81V9.83h-4.19V8.11H44.59v1.72h-4.22v2.31H38.6V14h-2.27v19.85h2.27v2.28h1.84v1.75h20.7
				v-1.82h1.89v-2.21h2.31V14.04h-2.31V12.18z M54.67,27.96h-1.83v2.31h-4.11v-2.31h-1.9v-9.89h1.9v-1.83h4.11v1.83h1.83V27.96z"/>
			<linearGradient id="SVGID_9_" gradientUnits="userSpaceOnUse" x1="82.5373" y1="37.8416" x2="82.5373" y2="22.5015">
				<stop  offset="0" style="stop-color:#DA9807"/>
				<stop  offset="1" style="stop-color:#F9BB32"/>
			</linearGradient>
			<path class="st11" d="M95.68,12.18V9.9h-1.79V5.83h-2.35V4.04H73.12v1.83h-1.86v2.24h-1.83v4.1h-2.32v13.88h2.4v5.93h3.65v1.82
				h18.39v-1.8h2.23v-4.01h1.86v-1.88h2.32V12.18H95.68z M85.52,23.93h-1.79v2.24h-4.15v-2.24h-2.32v-9.89h2.32v-1.83h4.15v1.83
				h1.79V23.93z"/>
		</g>
	</g>
</g>
</svg>
